<?xml version="1.0" standalone="no"?>
<!DOCTYPE svg PUBLIC "-//W3C//DTD SVG 20010904//EN"
 "http://www.w3.org/TR/2001/REC-SVG-20010904/DTD/svg10.dtd">
<svg version="1.0" xmlns="http://www.w3.org/2000/svg"
 width="200.000000pt" height="200.000000pt" viewBox="0 0 200.000000 200.000000"
 preserveAspectRatio="xMidYMid meet">

<g transform="translate(0.000000,200.000000) scale(0.100000,-0.100000)"
fill="#ffffff" stroke="none">
<path d="M834 1986 c-301 -58 -544 -225 -697 -481 -270 -453 -128 -1050 319
-1341 591 -386 1382 -52 1524 644 65 320 -39 662 -273 896 -125 125 -300 225
-467 266 -109 27 -307 35 -406 16z m388 -85 c345 -89 598 -347 685 -699 23
-92 23 -312 0 -404 -45 -184 -129 -332 -262 -463 -183 -181 -435 -276 -695
-262 -296 16 -563 170 -728 422 -102 155 -146 307 -146 505 0 148 13 215 64
348 65 168 219 350 378 446 91 54 243 110 342 125 94 14 271 5 362 -18z"/>
<path d="M1248 1461 c-89 -29 -138 -102 -138 -206 l0 -62 -60 -16 c-53 -15
-60 -20 -60 -42 0 -24 3 -25 60 -25 l60 0 0 -286 0 -285 48 3 47 3 3 283 2
282 80 0 80 0 0 40 0 40 -80 0 -80 0 0 60 c0 35 7 74 15 90 20 39 73 55 135
41 51 -11 55 -9 64 35 6 25 3 33 -11 38 -30 12 -136 16 -165 7z"/>
<path d="M697 1333 c-3 -5 -13 -36 -22 -70 -17 -59 -19 -62 -67 -83 -40 -17
-49 -25 -46 -43 3 -19 10 -22 51 -25 l47 -3 0 -222 c0 -197 3 -227 20 -264 32
-72 120 -106 219 -87 44 9 46 11 49 47 l3 38 -50 -7 c-33 -4 -62 -2 -81 6 -55
23 -60 46 -60 280 l0 210 90 0 90 0 0 40 0 40 -90 0 -90 0 0 75 0 75 -29 0
c-17 0 -32 -3 -34 -7z"/>
</g>
</svg>
